<?xml version="1.0" encoding="utf-8"?>
<svg viewBox="153.72 135.667 190 190" xmlns="http://www.w3.org/2000/svg">
  <g transform="matrix(2.251561, 0, 0, 2.251561, 156.587626, 138.129095)">
    <g transform="translate(-252.4 4.5158)">
      <path d="M 293.319 -3.389 C 290.582 -3.389 287.908 -3.102 285.325 -2.577 L 285.325 3.606 C 281.852 4.445 278.609 5.79 275.644 7.603 L 271.273 3.231 C 269.031 4.716 266.983 6.459 265.089 8.353 C 263.195 10.247 261.452 12.295 259.968 14.537 L 264.339 18.909 C 262.525 21.873 261.181 25.116 260.342 28.589 L 254.158 28.589 C 253.634 31.172 253.347 33.846 253.347 36.583 C 253.347 39.32 253.634 41.995 254.158 44.578 L 260.342 44.578 C 261.181 48.05 262.525 51.293 264.339 54.259 L 259.968 58.631 C 261.452 60.871 263.195 62.92 265.089 64.814 C 266.983 66.707 269.031 68.45 271.273 69.935 L 275.644 65.563 C 278.609 67.378 281.852 68.722 285.325 69.56 L 285.325 75.744 C 287.908 76.269 290.582 76.556 293.319 76.556 C 296.056 76.556 298.731 76.269 301.314 75.744 L 301.314 69.56 C 304.786 68.722 308.029 67.378 310.995 65.563 L 315.367 69.935 C 317.608 68.45 319.656 66.707 321.55 64.814 C 323.444 62.92 325.186 60.871 326.672 58.631 L 322.299 54.259 C 324.113 51.293 325.458 48.05 326.297 44.578 L 332.48 44.578 C 333.005 41.995 333.292 39.32 333.292 36.583 C 333.292 33.846 333.005 31.172 332.48 28.589 L 326.297 28.589 C 325.459 25.116 324.113 21.873 322.299 18.909 L 326.672 14.537 C 325.186 12.295 323.444 10.247 321.55 8.353 C 319.656 6.459 317.608 4.716 315.367 3.231 L 310.995 7.603 C 308.029 5.79 304.786 4.445 301.314 3.606 L 301.314 -2.577 C 298.731 -3.102 296.056 -3.389 293.319 -3.389 Z M 293.319 16.597 C 304.352 16.597 313.305 25.551 313.305 36.583 C 313.305 47.616 304.352 56.569 293.319 56.569 C 282.287 56.569 273.333 47.616 273.333 36.583 C 273.333 25.551 282.287 16.597 293.319 16.597 Z" stroke-dashoffset="162" stroke-linecap="round" stroke-linejoin="round" stroke-width="2" style="fill: rgb(255, 255, 255); stroke: rgb(0, 0, 0);"/>
    </g>
  </g>
</svg>